<svg width="205" height="56" viewBox="0 0 205 56" fill="none" xmlns="http://www.w3.org/2000/svg">
<path d="M24.4824 44.429V25.4312H32.7453V41.8983C32.7453 45.1793 34.7838 47.3682 37.896 47.3682C41.2352 47.3682 43.5006 45.1216 43.5006 41.7829V25.4312H51.7635V44.3136C51.7635 45.8098 52.6103 46.6756 54.0857 46.6756H54.6532V54.7915H52.331C48.3676 54.7915 45.7093 53.4684 44.4653 50.8179C42.1999 53.868 39.0309 55.4796 35.1242 55.4796C28.7295 55.4796 24.4824 51.1065 24.4824 44.4246V44.429Z" fill="#F9F3F1"/>
<path d="M140.133 41.4233V25.4312H148.396V44.3136C148.396 45.8098 149.243 46.6755 150.718 46.6755H151.285V54.7915H148.963C144.537 54.8803 142.726 53.0688 142.202 52.465C140.142 50.1075 140.142 46.0584 140.137 41.4233H140.133Z" fill="#F9F3F1"/>
<path d="M56.8574 25.431H65.1203V28.1926C67.2723 25.8883 70.044 24.7384 73.3265 24.7384C77.3466 24.7384 80.5156 26.5232 82.2703 29.5156C84.5925 26.4078 87.875 24.7384 92.0042 24.7384C98.2854 24.7384 102.476 29.0539 102.476 35.6203V44.3134C102.476 45.8096 103.327 46.6754 104.798 46.6754H105.365V54.7913H103.043C97.2116 54.7913 94.2129 51.8566 94.2129 46.1559V38.1554C94.2129 34.9899 92.2312 32.8588 89.2325 32.8588C86.0068 32.8588 83.7981 35.0476 83.7981 38.2709V54.7958H75.5352V38.1599C75.5352 34.9943 73.5535 32.8632 70.5547 32.8632C67.329 32.8632 65.1203 35.052 65.1203 38.2753V54.8002H56.8574V25.4399V25.431Z" fill="#F9F3F1"/>
<path d="M107.182 13.3413H115.445V28.3656C117.653 26.0613 120.652 24.7383 124.161 24.7383C132.141 24.7383 138.086 31.358 138.086 40.1088C138.086 48.8597 132.141 55.4794 124.161 55.4794C120.652 55.4794 117.653 54.1563 115.445 51.8521V54.7868H107.182V13.3369V13.3413ZM129.596 40.1133C129.596 35.9665 126.597 32.8587 122.52 32.8587C118.443 32.8587 115.445 35.9665 115.445 40.1133C115.445 44.26 118.443 47.3679 122.52 47.3679C126.597 47.3679 129.596 44.26 129.596 40.1133Z" fill="#F9F3F1"/>
<path d="M152.408 40.1135C152.408 31.3626 159.087 24.7429 167.974 24.7429C176.861 24.7429 183.539 31.3049 183.539 40.2289C183.539 40.9792 183.482 42.1291 183.312 42.8217H161.239C162.142 46.1605 164.748 48.2916 168.201 48.2916C170.916 48.2916 173.181 47.0839 174.259 45.53H183.09C180.938 51.4616 175.167 55.4885 168.035 55.4885C159.091 55.4885 152.413 48.8687 152.413 40.1179L152.408 40.1135ZM161.295 37.2365H174.709C173.805 34.0132 171.256 31.9398 167.974 31.9398C164.691 31.9398 162.199 34.0132 161.295 37.2365Z" fill="#F9F3F1"/>
<path d="M148.396 13.3459H140.133V25.5776H148.396V13.3459Z" fill="#F9F3F1"/>
<path d="M0 34.031V42.1469H2.26543C2.62335 42.1469 2.97692 42.138 3.33484 42.1203C4.50029 42.0626 5.66138 41.9027 6.80064 41.6408C7.36372 41.512 7.91807 41.3566 8.46806 41.1746V55.4841H17.2373V35.2431C18.2543 34.0532 18.9222 33.0143 19.2801 32.4415C19.5289 32.0464 20.1444 31.043 20.7817 29.6622C21.24 28.6722 21.6372 27.651 21.9733 26.6077C22.3225 25.5243 22.6106 24.4233 22.8376 23.3089C23.0776 22.1457 23.2522 20.9691 23.3657 19.7837C23.488 18.5494 23.5447 17.3063 23.5447 16.0632C23.5447 5.81612 18.848 0 11.7723 0C4.98044 0 0.510702 5.23895 0.510702 14.1629C0.510702 20.8404 2.99874 27.3491 7.24586 32.5836C5.60463 33.5026 3.79316 34.0221 1.81146 34.0221H0V34.031ZM15.0548 15.4327C15.0548 19.5218 14.2604 23.2601 12.7894 26.3146C10.4105 22.745 9.05297 18.5406 9.05297 14.1674C9.05297 10.2515 10.1267 8.12038 11.9382 8.12038C13.7497 8.12038 15.0504 10.4246 15.0504 15.4327H15.0548Z" fill="#F9F3F1"/>
<circle cx="196.539" cy="47.4884" r="8" fill="#FFC53E"/>
</svg>
